<svg width="220" height="220" viewBox="0 0 220 220" fill="none" xmlns="http://www.w3.org/2000/svg">
  <rect width="220" height="220" rx="48" fill="url(#paint0_radial_brunch)" />
  <g filter="url(#filter0_di_brunch)">
    <circle cx="110" cy="110" r="72" fill="url(#paint1_radial_brunch)" />
    <circle cx="110" cy="110" r="44" fill="url(#paint2_radial_brunch)" />
  </g>
  <path d="M110 62C134 62 152 80 152 104C152 128 134 146 110 146C86 146 68 128 68 104C68 80 86 62 110 62Z" fill="url(#paint3_radial_brunch)" />
  <path d="M110 84C120.493 84 129 92.5066 129 103C129 113.493 120.493 122 110 122C99.5066 122 91 113.493 91 103C91 92.5066 99.5066 84 110 84Z" fill="url(#paint4_radial_brunch)" />
  <path d="M150 150C154.418 150 158 153.582 158 158C158 162.418 154.418 166 150 166C145.582 166 142 162.418 142 158C142 153.582 145.582 150 150 150Z" fill="url(#paint5_radial_brunch)" />
  <path d="M82 150C86.4183 150 90 153.582 90 158C90 162.418 86.4183 166 82 166C77.5817 166 74 162.418 74 158C74 153.582 77.5817 150 82 150Z" fill="url(#paint6_radial_brunch)" />
  <defs>
    <radialGradient id="paint0_radial_brunch" cx="0" cy="0" r="1" gradientUnits="userSpaceOnUse" gradientTransform="translate(50 40) rotate(45) scale(240)">
      <stop stop-color="#f8f4ea" />
      <stop offset="1" stop-color="#ecf2e6" />
    </radialGradient>
    <filter id="filter0_di_brunch" x="22" y="22" width="176" height="176" filterUnits="userSpaceOnUse" color-interpolation-filters="sRGB">
      <feFlood flood-opacity="0" result="BackgroundImageFix" />
      <feBlend mode="normal" in="SourceGraphic" in2="BackgroundImageFix" result="shape" />
      <feColorMatrix in="SourceAlpha" type="matrix" values="0 0 0 0 0 0 0 0 0 0 0 0 0 0 0 0 0 0 127 0" result="hardAlpha" />
      <feOffset dy="8" />
      <feGaussianBlur stdDeviation="10" />
      <feColorMatrix type="matrix" values="0 0 0 0 0.219608 0 0 0 0 0.32549 0 0 0 0 0.207843 0 0 0 0.18 0" />
      <feBlend mode="normal" in2="shape" result="effect1_innerShadow_brunch" />
    </filter>
    <radialGradient id="paint1_radial_brunch" cx="0" cy="0" r="1" gradientUnits="userSpaceOnUse" gradientTransform="translate(90 70) rotate(60) scale(140)">
      <stop stop-color="#ebf3e4" />
      <stop offset="1" stop-color="#d3e3ce" />
    </radialGradient>
    <radialGradient id="paint2_radial_brunch" cx="0" cy="0" r="1" gradientUnits="userSpaceOnUse" gradientTransform="translate(124 134) rotate(60) scale(90)">
      <stop stop-color="#fdfaf5" />
      <stop offset="1" stop-color="#e5e9dc" />
    </radialGradient>
    <radialGradient id="paint3_radial_brunch" cx="0" cy="0" r="1" gradientUnits="userSpaceOnUse" gradientTransform="translate(110 82) rotate(90) scale(90 82)">
      <stop stop-color="#ffd37c" />
      <stop offset="1" stop-color="#e68b3e" />
    </radialGradient>
    <radialGradient id="paint4_radial_brunch" cx="0" cy="0" r="1" gradientUnits="userSpaceOnUse" gradientTransform="translate(110 92) rotate(90) scale(50)">
      <stop stop-color="#f8f1d8" />
      <stop offset="1" stop-color="#dca444" />
    </radialGradient>
    <radialGradient id="paint5_radial_brunch" cx="0" cy="0" r="1" gradientUnits="userSpaceOnUse" gradientTransform="translate(150 150) rotate(90) scale(14)">
      <stop stop-color="#b4d875" />
      <stop offset="1" stop-color="#638a37" />
    </radialGradient>
    <radialGradient id="paint6_radial_brunch" cx="0" cy="0" r="1" gradientUnits="userSpaceOnUse" gradientTransform="translate(82 150) rotate(90) scale(14)">
      <stop stop-color="#b7df7d" />
      <stop offset="1" stop-color="#567a30" />
    </radialGradient>
  </defs>
</svg>
