<svg width="600" height="450" viewBox="0 0 600 450" fill="none" xmlns="http://www.w3.org/2000/svg">
  <rect width="600" height="450" rx="48" fill="url(#paint0_radial_hero)" />
  <g filter="url(#filter0_d_hero)">
    <circle cx="300" cy="225" r="150" fill="url(#paint1_radial_hero)" />
  </g>
  <g filter="url(#filter1_d_hero)" opacity="0.85">
    <circle cx="300" cy="225" r="105" fill="url(#paint2_radial_hero)" />
  </g>
  <g opacity="0.9">
    <path d="M348 190C353.828 202.152 328.978 233.364 298.486 243.202C267.995 253.04 244.212 240.689 238.384 228.537C232.556 216.385 249.966 204.622 280.458 194.784C310.949 184.946 342.172 177.848 348 190Z" fill="url(#paint3_radial_hero)" />
    <path d="M361.994 245.322C369.797 259.379 351.288 288.507 323.078 302.857C294.868 317.206 269.132 314.314 261.329 300.258C253.527 286.202 266.783 263.139 295.014 248.774C323.244 234.408 354.191 231.266 361.994 245.322Z" fill="url(#paint4_radial_hero)" />
    <path d="M330.596 177.618C339.63 192.201 326.078 215.681 304.139 227.2C282.201 238.718 259.301 236.03 250.267 221.447C241.232 206.864 244.552 183.585 266.49 172.066C288.429 160.548 321.561 163.034 330.596 177.618Z" fill="url(#paint5_radial_hero)" />
  </g>
  <g opacity="0.45">
    <ellipse cx="305" cy="334" rx="145" ry="38" fill="url(#paint6_radial_hero)" />
  </g>
  <defs>
    <radialGradient id="paint0_radial_hero" cx="0" cy="0" r="1" gradientUnits="userSpaceOnUse" gradientTransform="translate(120 80) rotate(37.4) scale(540 360)">
      <stop stop-color="#f5f1e6" />
      <stop offset="1" stop-color="#e0eadf" />
    </radialGradient>
    <filter id="filter0_d_hero" x="110" y="85" width="380" height="380" filterUnits="userSpaceOnUse" color-interpolation-filters="sRGB">
      <feFlood flood-opacity="0" result="BackgroundImageFix" />
      <feBlend mode="normal" in="SourceGraphic" in2="BackgroundImageFix" result="shape" />
      <feGaussianBlur stdDeviation="12" result="effect1_foregroundBlur_hero" />
    </filter>
    <filter id="filter1_d_hero" x="175" y="100" width="250" height="250" filterUnits="userSpaceOnUse" color-interpolation-filters="sRGB">
      <feFlood flood-opacity="0" result="BackgroundImageFix" />
      <feBlend mode="normal" in="SourceGraphic" in2="BackgroundImageFix" result="shape" />
      <feGaussianBlur stdDeviation="8" result="effect1_foregroundBlur_hero" />
    </filter>
    <radialGradient id="paint1_radial_hero" cx="0" cy="0" r="1" gradientUnits="userSpaceOnUse" gradientTransform="translate(246 132) rotate(60) scale(250)">
      <stop stop-color="#faf9f4" />
      <stop offset="1" stop-color="#d7dcc8" />
    </radialGradient>
    <radialGradient id="paint2_radial_hero" cx="0" cy="0" r="1" gradientUnits="userSpaceOnUse" gradientTransform="translate(260 170) rotate(65) scale(170)">
      <stop stop-color="#f8fbf4" />
      <stop offset="1" stop-color="#edf1e7" />
    </radialGradient>
    <radialGradient id="paint3_radial_hero" cx="0" cy="0" r="1" gradientUnits="userSpaceOnUse" gradientTransform="translate(289 195) rotate(71) scale(70 90)">
      <stop stop-color="#6f944d" />
      <stop offset="1" stop-color="#3e5a24" />
    </radialGradient>
    <radialGradient id="paint4_radial_hero" cx="0" cy="0" r="1" gradientUnits="userSpaceOnUse" gradientTransform="translate(314 264) rotate(74) scale(76 96)">
      <stop stop-color="#f2a55f" />
      <stop offset="1" stop-color="#d87234" />
    </radialGradient>
    <radialGradient id="paint5_radial_hero" cx="0" cy="0" r="1" gradientUnits="userSpaceOnUse" gradientTransform="translate(286 192) rotate(68) scale(78 88)">
      <stop stop-color="#b3d76f" />
      <stop offset="1" stop-color="#6c9436" />
    </radialGradient>
    <radialGradient id="paint6_radial_hero" cx="0" cy="0" r="1" gradientUnits="userSpaceOnUse" gradientTransform="translate(305 334) rotate(90) scale(38 145)">
      <stop stop-color="#88927e" stop-opacity="0.3" />
      <stop offset="1" stop-color="#c4d0bd" stop-opacity="0" />
    </radialGradient>
  </defs>
</svg>
