<svg width="220" height="220" viewBox="0 0 220 220" fill="none" xmlns="http://www.w3.org/2000/svg">
  <rect width="220" height="220" rx="48" fill="url(#paint0_radial_wood)" />
  <g filter="url(#filter0_di_wood)">
    <rect x="48" y="52" width="124" height="116" rx="36" fill="url(#paint1_radial_wood)" />
  </g>
  <path d="M110 72C137 72 150 88 150 110C150 132 129 158 110 158C91 158 70 132 70 110C70 88 83 72 110 72Z" fill="url(#paint2_radial_wood)" />
  <path d="M120 94C131 100 138 115 135 128C132 141 120 152 110 150C99 148 95 130 96 118C97 106 109 88 120 94Z" fill="url(#paint3_radial_wood)" />
  <path d="M102 98C108 104 110 114 108 122C106 130 100 136 94 134C88 132 84 122 86 114C88 106 96 92 102 98Z" fill="url(#paint4_radial_wood)" />
  <path d="M170 150C164 166 140 188 110 188C80 188 56 166 50 150" stroke="url(#paint5_linear_wood)" stroke-width="10" stroke-linecap="round" stroke-linejoin="round" />
  <defs>
    <radialGradient id="paint0_radial_wood" cx="0" cy="0" r="1" gradientUnits="userSpaceOnUse" gradientTransform="translate(50 30) rotate(45) scale(220)">
      <stop stop-color="#f4f0e6" />
      <stop offset="1" stop-color="#ece9dd" />
    </radialGradient>
    <filter id="filter0_di_wood" x="28" y="32" width="164" height="156" filterUnits="userSpaceOnUse" color-interpolation-filters="sRGB">
      <feFlood flood-opacity="0" result="BackgroundImageFix" />
      <feBlend mode="normal" in="SourceGraphic" in2="BackgroundImageFix" result="shape" />
      <feColorMatrix in="SourceAlpha" type="matrix" values="0 0 0 0 0 0 0 0 0 0 0 0 0 0 0 0 0 0 127 0" result="hardAlpha" />
      <feOffset dy="8" />
      <feGaussianBlur stdDeviation="8" />
      <feColorMatrix type="matrix" values="0 0 0 0 0.262745 0 0 0 0 0.211765 0 0 0 0 0.133333 0 0 0 0.16 0" />
      <feBlend mode="normal" in2="shape" result="effect1_innerShadow_wood" />
    </filter>
    <radialGradient id="paint1_radial_wood" cx="0" cy="0" r="1" gradientUnits="userSpaceOnUse" gradientTransform="translate(94 62) rotate(60) scale(170 160)">
      <stop stop-color="#f8f2e6" />
      <stop offset="1" stop-color="#dacfb8" />
    </radialGradient>
    <radialGradient id="paint2_radial_wood" cx="0" cy="0" r="1" gradientUnits="userSpaceOnUse" gradientTransform="translate(110 88) rotate(90) scale(90 82)">
      <stop stop-color="#f0c27b" />
      <stop offset="1" stop-color="#d4752d" />
    </radialGradient>
    <radialGradient id="paint3_radial_wood" cx="0" cy="0" r="1" gradientUnits="userSpaceOnUse" gradientTransform="translate(120 98) rotate(100) scale(70 60)">
      <stop stop-color="#ffdf91" />
      <stop offset="1" stop-color="#d95f24" />
    </radialGradient>
    <radialGradient id="paint4_radial_wood" cx="0" cy="0" r="1" gradientUnits="userSpaceOnUse" gradientTransform="translate(100 102) rotate(100) scale(50 40)">
      <stop stop-color="#ffd27d" />
      <stop offset="1" stop-color="#c25020" />
    </radialGradient>
    <linearGradient id="paint5_linear_wood" x1="50" y1="168" x2="170" y2="168" gradientUnits="userSpaceOnUse">
      <stop stop-color="#c9a770" />
      <stop offset="1" stop-color="#735c2e" />
    </linearGradient>
  </defs>
</svg>
